<svg aria-hidden="true" style="position: absolute; width: 0; height: 0; overflow: hidden;" version="1.1" xmlns="http://www.w3.org/2000/svg" xmlns:xlink="http://www.w3.org/1999/xlink">
<defs>
<symbol id="icon-figma" viewBox="0 0 32 32">
<path d="M11.84 1.28c-2.996 0-5.44 2.444-5.44 5.44 0 2.112 1.248 3.9 3.014 4.8-1.766 0.9-3.014 2.688-3.014 4.8s1.248 3.9 3.014 4.8c-1.766 0.9-3.014 2.688-3.014 4.8 0 2.996 2.444 5.44 5.44 5.44s5.44-2.444 5.44-5.44v-6.94c0.858 1.629 2.516 2.78 4.48 2.78 2.82 0 5.12-2.3 5.12-5.12 0-2.318-1.583-4.205-3.702-4.832 2.137-0.735 3.702-2.707 3.702-5.088 0-2.996-2.444-5.44-5.44-5.44h-9.6zM11.84 2.56h4.16v8.32h-4.16c-0.003 0-0.006 0-0.010 0-2.292 0-4.15-1.858-4.15-4.15 0-0.003 0-0.007 0-0.010v0.001c0-2.305 1.855-4.16 4.16-4.16zM17.28 2.56h4.16c2.305 0 4.16 1.855 4.16 4.16s-1.855 4.16-4.16 4.16h-4.16v-8.32zM11.84 12.16h4.16v8.32h-4.16c-0.003 0-0.006 0-0.010 0-2.292 0-4.15-1.858-4.15-4.15 0-0.003 0-0.007 0-0.010v0.001c0-2.305 1.855-4.16 4.16-4.16zM17.28 12.16h2.14c-0.919 0.489-1.651 1.222-2.127 2.113l-0.013 0.027v-2.14zM21.76 12.8c2.129 0 3.84 1.711 3.84 3.84s-1.711 3.84-3.84 3.84-3.84-1.711-3.84-3.84 1.711-3.84 3.84-3.84zM11.84 21.76h4.16v4.16c0 2.305-1.855 4.16-4.16 4.16-0.003 0-0.006 0-0.010 0-2.292 0-4.15-1.858-4.15-4.15 0-0.003 0-0.007 0-0.010v0.001c0-2.305 1.855-4.16 4.16-4.16z"></path>
</symbol>
<symbol id="icon-git" viewBox="0 0 32 32">
<path d="M29.948 14.138l-12.085-12.085c-0.475-0.477-1.132-0.772-1.858-0.772-0.002 0-0.003 0-0.005 0h0c-0.675 0-1.35 0.257-1.862 0.772l-2.39 2.39 2.958 2.958c0.372-0.223 0.821-0.356 1.301-0.356 0.704 0 1.342 0.285 1.804 0.745l-0-0c0.46 0.462 0.744 1.098 0.744 1.802 0 0.48-0.133 0.929-0.363 1.313l0.006-0.012 2.908 2.908c0.371-0.222 0.818-0.353 1.296-0.353 1.412 0 2.556 1.144 2.556 2.556 0 0.705-0.286 1.344-0.748 1.806l0-0c-0.463 0.463-1.102 0.75-1.809 0.75-1.412 0-2.556-1.144-2.556-2.556 0-0.479 0.132-0.928 0.361-1.311l-0.006 0.012-2.907-2.907c-0.188 0.113-0.405 0.206-0.636 0.266l-0.017 0.004v7.863c1.111 0.292 1.918 1.286 1.92 2.47v0c0 1.414-1.146 2.56-2.56 2.56s-2.56-1.146-2.56-2.56c0.002-1.184 0.809-2.179 1.902-2.466l0.018-0.004v-7.862c-0.46-0.117-0.856-0.346-1.17-0.658l0 0c-0.46-0.462-0.744-1.098-0.744-1.802 0-0.48 0.133-0.929 0.363-1.313l-0.006 0.012-2.96-2.96-8.79 8.79c-0.477 0.476-0.772 1.135-0.772 1.862s0.295 1.386 0.772 1.862l12.085 12.085c0.475 0.477 1.132 0.773 1.857 0.773 0.002 0 0.003 0 0.005 0h-0c0.675 0 1.35-0.257 1.862-0.772l12.085-12.085c0.477-0.476 0.772-1.135 0.772-1.862s-0.295-1.386-0.772-1.862l-0-0z"></path>
</symbol>
<symbol id="icon-github" viewBox="0 0 32 32">
<path d="M16 3.2c-7.069 0-12.8 5.731-12.8 12.8 0 5.998 4.13 11.017 9.698 12.405-0.062-0.178-0.098-0.384-0.098-0.598 0-0.008 0-0.017 0-0.025v0.001-2.188h-1.609c-0.876 0-1.654-0.377-2.032-1.076-0.419-0.778-0.492-1.967-1.531-2.694-0.308-0.242-0.074-0.518 0.282-0.481 0.656 0.186 1.2 0.636 1.712 1.303 0.51 0.669 0.75 0.82 1.702 0.82 0.462 0 1.153-0.027 1.804-0.129 0.35-0.889 0.955-1.707 1.694-2.093-4.262-0.438-6.297-2.559-6.297-5.438 0-1.239 0.528-2.438 1.425-3.449-0.294-1.003-0.665-3.047 0.113-3.826 1.918 0 3.077 1.244 3.356 1.58 0.923-0.325 1.987-0.513 3.095-0.513 0.005 0 0.009 0 0.014 0h-0.001c1.105 0 2.159 0.186 3.117 0.515 0.275-0.334 1.436-1.582 3.358-1.582 0.781 0.78 0.406 2.833 0.109 3.834 0.892 1.008 1.417 2.204 1.417 3.441 0 2.877-2.031 4.996-6.287 5.437 1.171 0.611 2.026 2.329 2.026 3.622v2.916c0 0.111-0.025 0.191-0.037 0.286 4.988-1.748 8.571-6.484 8.571-12.069 0-7.069-5.731-12.8-12.8-12.8z"></path>
</symbol>
<symbol id="icon-html-5" viewBox="0 0 32 32">
<path d="M5.219 4l0.093 1.094 1.75 19.781 0.063 0.688 0.656 0.187 8.188 2.281 0.281-0.062 8.594-2.375 0.062-0.688 1.782-19.812 0.093-1.063h-1.093l-19.375-0.031zM7.406 6l17.188 0.031-1.625 18-6.969 1.939-7-1.94zM9.813 9l0.656 7.469h8.562l-0.281 3.218-2.75 0.75h-0.031l-2.75-0.75-0.156-2.062h-2.5l0.343 3.969 5.064 1.406h0.030l5.063-1.406 0.687-7.594h-9.031l-0.219-2.531h9.469l0.218-2.469z"></path>
</symbol>
<symbol id="icon-javascript" viewBox="0 0 32 32">
<path d="M27.735 2.56h-23.468c-0.943 0-1.707 0.765-1.708 1.708v23.465c0 0.943 0.765 1.707 1.708 1.708h23.465c0 0 0 0 0 0 0.942 0 1.706-0.763 1.708-1.705v-23.468c0 0 0 0 0 0 0-0.942-0.763-1.706-1.705-1.708h-0zM17.28 23.158c0 2.557-1.5 3.722-3.69 3.722-1.98 0-3.407-1.327-3.99-2.56l2.013-1.217c0.387 0.687 0.977 1.217 1.827 1.217 0.813 0 1.28-0.317 1.28-1.553v-8.047h2.56zM22.833 26.88c-2.268 0-3.555-1.142-4.273-2.56l1.92-1.28c0.522 0.855 1.092 1.672 2.298 1.672 1.012 0 1.542-0.505 1.542-1.205 0-0.835-0.55-1.133-1.663-1.619l-0.61-0.262c-1.763-0.751-2.935-1.691-2.935-3.68 0-1.83 1.398-3.226 3.578-3.226 1.553 0 2.668 0.54 3.473 1.955l-1.9 1.222c-0.42-0.753-0.87-1.048-1.572-1.048-0.715 0-1.167 0.455-1.167 1.048 0 0.732 0.452 1.027 1.5 1.482l0.61 0.262c2.077 0.888 3.247 1.795 3.247 3.836 0 2.197-1.728 3.402-4.047 3.402z"></path>
</symbol>
<symbol id="icon-sass" viewBox="0 0 32 32">
<path d="M27.539 17.793c-1.056 0.001-2.053 0.25-2.937 0.692l0.038-0.017c-0.297-0.593-0.598-1.114-0.648-1.502-0.059-0.452-0.127-0.723-0.056-1.262s0.383-1.303 0.378-1.36c-0.004-0.057-0.070-0.332-0.715-0.337s-1.197 0.124-1.262 0.294c-0.101 0.265-0.193 0.585-0.259 0.913l-0.007 0.040c-0.113 0.585-1.288 2.671-1.955 3.763-0.218-0.426-0.404-0.801-0.442-1.098-0.059-0.452-0.127-0.723-0.056-1.262s0.383-1.303 0.378-1.36c-0.004-0.057-0.070-0.332-0.715-0.337s-1.197 0.124-1.262 0.294-0.134 0.568-0.266 0.954c-0.132 0.385-1.694 3.865-2.103 4.767-0.237 0.532-0.411 0.887-0.591 1.237l0.073-0.156-0.001-0.001-0.022 0.045c-0.109 0.214-0.175 0.333-0.175 0.333l0.002 0.004c-0.087 0.157-0.18 0.304-0.226 0.304-0.032 0-0.097-0.42 0.014-0.995 0.232-1.207 0.79-3.090 0.785-3.155-0.003-0.033 0.104-0.361-0.365-0.533-0.455-0.166-0.618 0.111-0.659 0.112-0.040 0.001-0.070 0.098-0.070 0.098s0.508-2.117-0.968-2.117c-0.922 0-2.199 1.009-2.829 1.923-5.208 2.695-6.249 3.274-7.289 3.857l4.106-2.111-0.069-0.076c-1.788-1.908-5.093-3.257-4.953-5.821 0.051-0.932 0.375-3.388 6.351-6.365 4.895-2.44 8.815-1.768 9.492-0.28 0.968 2.125-2.095 6.076-7.178 6.646-1.937 0.217-2.957-0.534-3.211-0.813-0.267-0.294-0.307-0.308-0.406-0.252-0.163 0.090-0.060 0.35 0 0.505 0.152 0.395 0.774 1.096 1.837 1.444 0.934 0.307 3.208 0.475 5.959-0.589 3.080-1.192 5.485-4.506 4.78-7.277-0.719-2.818-5.391-3.744-9.812-2.173-2.632 0.935-5.48 2.403-7.529 4.318-2.436 2.278-2.824 4.261-2.664 5.089 0.569 2.944 4.626 4.861 6.251 6.282l-0.224 0.124c-0.815 0.403-3.907 2.022-4.681 3.732-0.877 1.94 0.14 3.332 0.813 3.519 2.086 0.58 4.228-0.464 5.379-2.18s1.010-3.95 0.482-4.97l-0.020-0.038 0.637-0.376c0.415-0.243 0.822-0.47 1.175-0.663-0.198 0.541-0.342 1.19-0.418 2.128-0.088 1.101 0.363 2.525 0.954 3.085 0.26 0.246 0.573 0.252 0.771 0.252 0.687 0 1.001-0.572 1.346-1.248 0.424-0.829 0.799-1.795 0.799-1.795s-0.472 2.608 0.813 2.608c0.468 0 0.939-0.607 1.149-0.916l0.001 0.005 0.036-0.061c0.049-0.074 0.076-0.122 0.076-0.122l0.003-0.013c0.188-0.326 0.605-1.071 1.231-2.3 0.808-1.587 1.584-3.575 1.584-3.575s0.072 0.486 0.308 1.29c0.139 0.473 0.435 0.996 0.668 1.497-0.188 0.26-0.303 0.41-0.303 0.41l0.003 0.008c-0.184 0.245-0.346 0.448-0.513 0.647l0.019-0.023c-0.638 0.76-1.398 1.628-1.5 1.879-0.12 0.295-0.092 0.513 0.14 0.687 0.169 0.127 0.47 0.147 0.785 0.126 0.573-0.038 0.977-0.181 1.176-0.268 0.386-0.138 0.72-0.318 1.022-0.54l-0.011 0.008c0.626-0.46 1.004-1.119 0.968-1.991-0.020-0.481-0.173-0.957-0.367-1.407 0.057-0.082 0.114-0.164 0.171-0.248 0.987-1.443 1.752-3.028 1.752-3.028s0.072 0.486 0.308 1.29c0.12 0.407 0.356 0.851 0.568 1.286-0.928 0.754-1.503 1.63-1.704 2.205-0.369 1.063-0.080 1.545 0.463 1.654 0.246 0.050 0.593-0.063 0.854-0.173 0.412-0.139 0.77-0.327 1.091-0.563l-0.011 0.008c0.626-0.46 1.228-1.105 1.192-1.977-0.017-0.397-0.124-0.791-0.27-1.17 0.787-0.328 1.805-0.51 3.103-0.358 2.783 0.325 3.329 2.063 3.225 2.79s-0.688 1.127-0.883 1.248-0.255 0.163-0.238 0.252c0.024 0.131 0.114 0.125 0.28 0.097 0.229-0.038 1.461-0.591 1.514-1.934 0.067-1.701-1.567-3.573-4.46-3.558zM6.088 25.025c-0.922 1.005-2.21 1.386-2.762 1.066-0.596-0.346-0.36-1.827 0.771-2.893 0.689-0.65 1.58-1.249 2.17-1.619l0.572-0.344 0.062-0.035-0.001-0.001 0.143-0.086c0.412 1.519 0.013 2.857-0.955 3.912zM12.803 20.46c-0.321 0.783-0.993 2.785-1.402 2.678-0.351-0.092-0.565-1.615-0.070-3.112 0.249-0.754 0.781-1.655 1.094-2.005 0.503-0.563 1.057-0.747 1.192-0.518 0.172 0.291-0.611 2.467-0.813 2.958zM18.352 23.107c-0.136 0.071-0.261 0.116-0.319 0.081-0.043-0.026 0.056-0.119 0.056-0.119s0.694-0.747 0.968-1.087c0.159-0.198 0.344-0.433 0.544-0.695 0.002 0.026 0.003 0.052 0.003 0.078-0.003 0.895-0.867 1.498-1.252 1.741zM22.627 22.132c-0.102-0.072-0.084-0.306 0.249-1.033 0.131-0.285 0.43-0.767 0.95-1.226 0.060 0.189 0.097 0.37 0.096 0.539-0.007 1.126-0.81 1.546-1.295 1.72z"></path>
</symbol>
<symbol id="icon-css" viewBox="0 0 32 32">
<path d="M9.22 2.128l0.010 2.132 3.509 0.016v-1.371h-1.991v-1.404h1.991v-1.502h-3.526l0.007 2.128zM14.241 0.741v0.744l1.42 1.42h-1.42l0.007 0.676 0.010 0.679h3.526l0.010-0.669 0.007-0.666-0.708-0.712-0.712-0.712h1.42v-1.502h-3.558v0.741zM19.236 0.741v0.744l1.42 1.42h-1.42l0.007 0.676 0.010 0.679h3.526l0.010-0.669 0.007-0.666-0.708-0.712-0.712-0.712h1.42v-1.502h-3.558v0.741zM4.598 6.454c0.010 0.088 0.493 5.302 1.074 11.592 0.578 6.291 1.058 11.439 1.064 11.445s2.096 0.571 4.642 1.257l4.629 1.244 4.626-1.244c2.543-0.686 4.632-1.25 4.639-1.257 0.007-0.003 0.486-5.155 1.064-11.445 0.581-6.291 1.064-11.504 1.074-11.592l0.016-0.153h-22.845l0.016 0.153zM23.088 11.109c0 0.199-0.264 2.683-0.287 2.706-0.013 0.013-1.551 0.676-3.418 1.476l-3.395 1.453 6.578 0.003v0.072c0.003 0.183-0.725 8.537-0.748 8.576-0.013 0.029-1.172 0.379-2.922 0.888l-2.899 0.839-2.925-0.865c-1.613-0.477-2.931-0.868-2.931-0.868-0.007-0.010-0.372-4.273-0.372-4.325 0-0.029 0.31-0.039 1.449-0.039h1.446l0.020 0.202c0.010 0.114 0.052 0.62 0.091 1.13l0.075 0.921 0.101 0.029c0.052 0.013 0.761 0.193 1.567 0.395l1.469 0.369 1.6-0.451c0.881-0.248 1.606-0.454 1.613-0.46 0.023-0.020 0.235-3.614 0.212-3.633-0.010-0.010-2.23-0.026-4.929-0.029-4.541-0.013-4.91-0.016-4.913-0.065 0-0.033-0.049-0.643-0.108-1.361s-0.098-1.316-0.088-1.325c0.010-0.010 1.541-0.653 3.398-1.427s3.424-1.427 3.477-1.449c0.082-0.036-0.49-0.046-3.526-0.059l-3.624-0.016-0.15-1.208c-0.082-0.666-0.16-1.293-0.17-1.397l-0.023-0.186h14.331v0.108z"></path>
</symbol>
<symbol id="icon-phone" viewBox="0 0 20 32">
      <path d="M17 0H3C1.346 0 0 1.346 0 3v26c0 1.654 1.346 3 3 3h14c1.654 0 3-1.346 3-3V3c0-1.654-1.346-3-3-3zM3 2h14a1 1 0 0 1 1 1v21H2V3a1 1 0 0 1 1-1zm14 28H3a1 1 0 0 1-1-1v-3h16v3a1 1 0 0 1-1 1z"/>
      <path d="M4.708 27.478a.889.889 0 0 1 .001 1.319l-.001.001a1.048 1.048 0 0 1-1.417 0l.001.001a.889.889 0 0 1-.001-1.319l.001-.001a1.048 1.048 0 0 1 1.417 0l-.001-.001z"/>
    </symbol>
    <symbol id="icon-mail" viewBox="0 0 43 32">
      <path d="M38.667 0H4C1.795 0 0 1.795 0 4v24c0 2.205 1.795 4 4 4h34.667c2.205 0 4-1.795 4-4V4c0-2.205-1.795-4-4-4zm0 2.667c.181 0 .355.037.512.104L21.334 18.238 3.489 2.771c.151-.065.327-.104.512-.104h34.667zm0 26.666H4A1.333 1.333 0 0 1 2.667 28V5.587l17.792 15.421c.233.203.539.327.875.327s.642-.124.876-.328l-.002.001L40 5.587V28c0 .736-.597 1.333-1.333 1.333z"/>
    </symbol>
    <symbol id="icon-whatsapp" viewBox="0 0 32 32">
<path d="M16 1.28c-8.116 0-14.72 6.604-14.72 14.72 0 2.534 0.655 5.027 1.896 7.226l-1.873 6.682c-0.015 0.052-0.024 0.112-0.024 0.174 0 0.353 0.286 0.639 0.639 0.639 0.055 0 0.108-0.007 0.159-0.020l-0.004 0.001 6.973-1.727c2.012 1.099 4.407 1.745 6.953 1.746h0c8.116 0 14.72-6.604 14.72-14.72s-6.604-14.72-14.72-14.72zM23.405 21.194c-0.315 0.872-1.825 1.667-2.551 1.774-0.652 0.095-1.476 0.136-2.381-0.148-0.887-0.273-1.602-0.54-2.297-0.842l0.143 0.055c-3.791-1.617-6.266-5.386-6.456-5.635s-1.543-2.023-1.543-3.859 0.976-2.739 1.323-3.113c0.347-0.374 0.756-0.467 1.008-0.467s0.504 0.003 0.724 0.013c0.232 0.012 0.544-0.088 0.851 0.641 0.315 0.748 1.071 2.584 1.164 2.771 0.095 0.187 0.157 0.405 0.032 0.654s-0.188 0.404-0.378 0.623-0.397 0.486-0.567 0.654c-0.189 0.186-0.386 0.388-0.166 0.762s0.979 1.596 2.102 2.585c1.443 1.271 2.661 1.665 3.039 1.852s0.598 0.156 0.819-0.093c0.22-0.25 0.945-1.090 1.196-1.463s0.504-0.312 0.851-0.187c0.347 0.124 2.205 1.027 2.582 1.213s0.63 0.28 0.724 0.436c0.095 0.155 0.095 0.902-0.22 1.773z"></path>
</symbol>
<symbol id="icon-linkedin" viewBox="0 0 32 32">
      <path d="M31.992 32H32V20.262c0-5.741-1.237-10.163-7.947-10.163-3.227 0-5.392 1.77-6.277 3.45h-.093v-2.914h-6.365v21.363h6.627V21.42c0-2.786.528-5.48 3.978-5.48 3.398 0 3.448 3.179 3.448 5.658V32h6.621zM.528 10.635h6.635V32H.528V10.635zM3.843 0A3.843 3.843 0 0 0 0 3.843c0 2.12 1.722 3.878 3.843 3.878 2.12 0 3.842-1.757 3.842-3.878S5.965.002 3.844 0z"/>
    </symbol>
</defs>
</svg>
